# xmcd
#
# Track frame offsets:
#	150
#	26526
#	42326
#	75929
#	111705
#	140399
#	173908
#	196258
#	217991
#	252392
#	295106
#
# Disc length: 4362 seconds
#
# Revision: 1
# Processed by: cddbd v1.5.2PL0 Copyright (c) Steve Scherf et al.
# Submitted via: audiograbber 1.83.01
#
DISCID=9911080b
DTITLE=Grateful Dead - 71-04-13 Catholic Youth Centre, Scranton PA
DYEAR=1900
DGENRE=
TTITLE0=Casey Jones
TTITLE1=Mama Tried
TTITLE2=Loser
TTITLE3=Big Boss Man
TTITLE4=Me and Bobby McGee
TTITLE5=Bertha
TTITLE6=Cumberland Blues
TTITLE7=Big Railroad Blues
TTITLE8=Playing In The Band
TTITLE9=Hard To Handle
TTITLE10=Sugar Magnolia
EXTD=
EXTT0=
EXTT1=
EXTT2=
EXTT3=
EXTT4=
EXTT5=
EXTT6=
EXTT7=
EXTT8=
EXTT9=
EXTT10=
PLAYORDER=
